<svg xmlns="http://www.w3.org/2000/svg" viewBox="0 0 32 32" width="32" height="32">
  <defs>
    <linearGradient id="g" x1="0" y1="0" x2="0" y2="1">
      <stop offset="0" stop-color="#a78bfa"/>
      <stop offset="1" stop-color="#7c3aed"/>
    </linearGradient>
  </defs>
  <rect width="32" height="32" rx="8" fill="url(#g)"/>
  <path fill="none" stroke="#fff" stroke-width="2" stroke-linejoin="round"
        d="M8 12a2 2 0 0 1 2-2h12a2 2 0 0 1 2 2 2 2 0 0 0 0 4 2 2 0 0 0 0 4 2 2 0 0 1-2 2H10a2 2 0 0 1-2-2 2 2 0 0 0 0-4 2 2 0 0 0 0-4z"/>
  <line x1="16.5" y1="11" x2="16.5" y2="21" stroke="#fff" stroke-width="1.6"
        stroke-dasharray="2 2.2" stroke-linecap="round"/>
</svg>
